<svg width="889" height="889" viewBox="0 0 889 889" fill="none" xmlns="http://www.w3.org/2000/svg">
<circle cx="444.5" cy="444.5" r="444.5" fill="#4F898F"/>
<path d="M790.974 521.734C792.608 513.953 788.489 508.639 779.539 506.76C768.239 504.396 756.466 509.043 739.187 523.553L732.43 517.574C750.736 501.388 767.217 494.939 781.404 497.905C795.474 500.861 802.417 510.211 799.728 523.004C798.941 526.74 797.186 530.373 794.714 533.641L787.713 528.832C789.098 527.012 790.475 524.179 790.985 521.733L790.974 521.734Z" fill="#FFFACF"/>
<path d="M779.193 588.511L717.573 565.178L720.695 556.93L730.27 560.558C730.05 559.311 730.24 557.868 730.817 556.336C732.596 551.651 734.936 550.682 736.019 547.823C737.48 543.954 735.199 542.621 732.036 541.42L727.243 539.607L730.399 531.25L743.842 536.339C773.586 547.598 781.577 564.946 779.18 588.501L779.193 588.511ZM742.496 565.186L770.501 575.787C769.729 564.903 764.322 554.579 744.325 546.193C744.459 547.403 744.291 548.738 743.751 550.173C741.972 554.858 739.631 555.828 738.549 558.687C737.088 562.555 739.747 564.149 742.496 565.186Z" fill="#FFFACF"/>
<path d="M741.404 656.251L685.294 621.702L689.918 614.185L734.434 641.599C735.241 628.024 725.974 622.322 709.463 612.153L696.205 603.99L700.89 596.385L714.148 604.548C730.658 614.717 739.926 620.419 751.679 613.594L707.163 586.18L711.788 578.663L767.898 613.212C757.523 622.169 748.034 625.537 737.121 623.934C743.457 632.956 744.724 642.945 741.403 656.239L741.404 656.251Z" fill="#FFFACF"/>
<path d="M724.525 675.03L718.691 681.935L669.222 640.077L675.056 633.173L724.525 675.03Z" fill="#FFFACF"/>
<path d="M675.782 724.422L632.063 676.578L638.732 670.479L648.426 681.088C662.389 696.365 674.009 700.046 687.885 696.822L652.4 657.988L658.911 652.035L703.361 700.683C691.552 706.161 680.462 707.597 669.734 704.4L682.439 718.312L675.77 724.411L675.782 724.422Z" fill="#FFFACF"/>
<path d="M624.361 759.933L589.474 705.32L597.096 700.456L617.857 732.945C618.476 731.897 619.405 730.92 620.789 730.045C625.014 727.351 627.471 727.965 630.041 726.329C633.525 724.102 632.486 721.664 630.669 718.823L612.611 690.547L620.233 685.683L655.12 740.296L647.498 745.16L637.771 729.928C637.141 730.976 636.223 731.952 634.839 732.828C630.614 735.521 628.157 734.907 625.587 736.543C622.103 738.77 623.369 741.579 624.959 744.049L631.994 755.068L624.372 759.932L624.361 759.933Z" fill="#FFFACF"/>
<path d="M593.28 748.065C600.903 766.828 594.795 775.057 585.047 779.142C574.798 783.433 564.641 782.027 556.937 763.051C549.061 743.685 547.513 723.667 559.667 718.571C571.821 713.474 585.231 728.287 593.28 748.065ZM565.07 759.645C570.454 772.502 574.847 773.963 581.677 771.11C587.503 768.671 590.405 764.025 585.056 751.27C580.43 740.218 569.967 723.703 563.037 726.602C556.209 729.467 560.605 748.995 565.068 759.634L565.07 759.645Z" fill="#FFFACF"/>
<path d="M521.981 740.932C516.172 742.378 512.755 748.06 514.26 754.083C517.527 767.185 539.582 767.405 542.989 781.04C544.728 788.016 540.76 794.621 533.681 796.383C528.815 797.597 525.233 797.142 521.025 794.716L524.383 787.025C526.368 788.216 528.585 788.553 530.592 788.052C533.02 787.445 534.348 785.538 533.766 783.225C531.97 776.045 509.499 773.225 505.358 756.641C502.452 745.014 508.431 734.772 519.843 731.925C525.129 730.606 529.699 730.929 535.139 732.484L534.69 741.917C529.305 740.123 526.212 739.882 521.981 740.932Z" fill="#FFFACF"/>
<path d="M463.751 806.898L454.167 806.99C436.526 807.156 429.026 796.771 428.899 784.022C428.749 767.906 440.341 749.501 463.135 740.582L463.751 806.898ZM454.847 798.265L454.451 754.924C443.297 762.323 437.749 774.138 437.841 783.616C437.917 791.895 442.004 798.391 453.764 798.28L454.847 798.265Z" fill="#FFFACF"/>
<path d="M382.81 745.859L386.296 737.011L415.177 741.197L405.889 805.332L380.562 801.663L379.69 792.515L398.23 795.199L399.652 785.39C398.329 786.189 396.626 786.494 394.802 786.229C390.277 785.575 389.036 783.521 386.015 783.085C384.83 782.913 383.931 783.001 383.223 783.347L380.252 775.761C381.845 774.676 384.009 774.11 386.71 774.499C391.674 775.221 393.092 777.512 396.113 777.948C400.212 778.544 401.017 776.019 401.499 772.678L404.915 749.069L382.822 745.869L382.81 745.859Z" fill="#FFFACF"/>
<path d="M291.581 775.001L316.424 713.972L324.59 717.301L320.731 726.785C321.992 726.587 323.417 726.826 324.93 727.44C329.568 729.328 330.483 731.698 333.315 732.854C337.147 734.412 338.542 732.159 339.805 729.036L341.741 724.299L350.016 727.662L344.599 740.978C332.608 770.431 315.061 777.989 291.582 775.012L291.581 775.001ZM315.81 738.892L304.516 766.635C315.418 766.141 325.863 760.977 334.75 741.193C333.535 741.28 332.198 741.102 330.794 740.523C326.156 738.634 325.241 736.264 322.409 735.108C318.577 733.55 316.919 736.17 315.81 738.892Z" fill="#FFFACF"/>
<path d="M275.325 701.334L281.896 694.453L302.828 706.768L269.987 762.619L262.196 758.037L290.347 710.164L275.325 701.334Z" fill="#FFFACF"/>
<path d="M203.422 717.535L244.621 666.122L251.502 671.632L245.1 679.625C246.355 679.801 247.671 680.425 248.938 681.451C252.852 684.585 253.05 687.116 255.428 689.021C258.664 691.612 260.637 689.844 262.747 687.21L265.943 683.22L272.912 688.802L263.918 700.019C244.035 724.83 225.062 727.079 203.41 717.536L203.422 717.535ZM236.936 689.818L218.211 713.184C228.806 715.813 240.291 713.844 254.432 697.407C253.239 697.154 252.022 696.59 250.833 695.637C246.919 692.503 246.721 689.972 244.343 688.067C241.119 685.474 238.78 687.516 236.948 689.816L236.936 689.818Z" fill="#FFFACF"/>
<path d="M175.036 660.244L210.541 628.39C220.46 650.211 216.203 674.659 203.636 685.933C192.936 695.531 181.287 695.595 172.553 685.871C170.013 683.028 168.115 679.461 166.948 675.545L174.961 672.748C175.611 674.938 177.085 677.724 178.76 679.59C184.065 685.508 191.045 684.958 197.525 679.148C205.552 671.943 209.637 657.748 206.538 643.847L187.969 660.505C189.686 663.066 189.733 665.077 191.395 666.933C192.193 667.824 192.936 668.325 193.704 668.52L191.119 676.242C189.198 676.058 187.17 675.105 185.349 673.08C182.437 669.835 182.434 667.061 179.67 663.986C178.433 662.608 177.629 661.869 175.014 660.258L175.036 660.244Z" fill="#FFFACF"/>
<path d="M168.992 640.875C151.751 651.511 142.621 646.844 136.982 637.909C131.048 628.516 130.755 618.268 148.182 607.518C165.979 596.528 185.459 591.694 192.496 602.841C199.533 613.988 187.149 629.659 168.992 640.875ZM152.889 614.982C141.099 622.428 140.393 627.006 144.337 633.261C147.713 638.599 152.769 640.686 164.46 633.298C174.581 626.899 189.143 613.842 185.13 607.49C181.174 601.225 162.651 608.809 152.887 614.971L152.889 614.982Z" fill="#FFFACF"/>
<path d="M101.996 569.423L162.752 543.918L166.168 552.049L156.733 556.006C157.76 556.755 158.601 557.933 159.235 559.448C161.179 564.071 160.142 566.388 161.327 569.206C162.927 573.028 165.505 572.416 168.624 571.104L173.348 569.125L176.81 577.356L163.555 582.925C134.235 595.234 116.492 588.15 102.019 569.421L101.996 569.423ZM144.681 561.08L117.066 572.677C125.119 580.039 136.142 583.798 156.426 576.113C155.498 575.318 154.692 574.241 154.105 572.837C152.161 568.215 153.198 565.897 152.013 563.079C150.413 559.258 147.388 559.942 144.681 561.08Z" fill="#FFFACF"/>
<path d="M147.38 521.512C145.933 515.703 140.252 512.286 134.229 513.791C121.126 517.058 120.907 539.113 107.272 542.52C100.295 544.259 93.6906 540.291 91.929 533.212C90.715 528.346 91.17 524.764 93.5957 520.556L101.287 523.914C100.096 525.899 99.7584 528.116 100.26 530.124C100.866 532.551 102.773 533.879 105.087 533.297C112.267 531.501 115.087 509.03 131.671 504.889C143.298 501.983 153.54 507.962 156.387 519.374C157.706 524.66 157.383 529.23 155.828 534.67L146.395 534.221C148.189 528.836 148.43 525.743 147.38 521.512Z" fill="#FFFACF"/>
<path d="M100.063 454.448L94.5256 465.726L86.9665 461.456L93.8226 451.035L81.309 451.928L81.2079 443.104L93.6336 443.84L86.6587 433.572L94.1295 429.028L99.9203 440.185L105.353 428.907L112.913 433.293L106.162 443.714L118.674 442.704L118.776 451.529L106.13 450.91L113.21 461.178L105.739 465.617L100.064 454.46L100.063 454.448Z" fill="#FFFACF"/>
<path d="M99.5958 358.647C97.7937 366.388 101.795 371.798 110.708 373.866C121.954 376.482 133.824 372.081 151.413 357.944L158.034 364.066C139.381 379.859 122.768 385.95 108.651 382.673C94.6529 379.418 87.9144 369.916 90.8669 357.188C91.7276 353.479 93.5682 349.883 96.1033 346.666L103.004 351.626C101.582 353.415 100.143 356.221 99.5855 358.66L99.5958 358.647Z" fill="#FFFACF"/>
<path d="M112.818 292.143L173.92 316.804L170.617 324.991L161.124 321.156C161.32 322.405 161.094 323.84 160.482 325.365C158.606 330.013 156.237 330.939 155.092 333.759C153.547 337.601 155.809 338.983 158.933 340.246L163.678 342.158L160.34 350.442L147.004 345.062C117.515 333.156 109.903 315.65 112.808 292.156L112.818 292.143ZM149.008 316.259L121.238 305.049C121.767 315.948 126.953 326.378 146.766 335.204C146.666 333.991 146.857 332.652 147.423 331.238C149.299 326.589 151.667 325.663 152.813 322.844C154.358 319.001 151.74 317.355 149.008 316.259Z" fill="#FFFACF"/>
<path d="M152.016 225.25L207.371 260.99L202.583 268.397L158.663 240.042C157.561 253.592 166.712 259.504 183.004 270.013L196.084 278.463L191.237 285.97L178.157 277.519C161.876 266.998 152.726 261.097 140.829 267.681L184.75 296.035L179.961 303.442L124.606 267.702C135.169 258.969 144.727 255.803 155.608 257.643C149.466 248.484 148.406 238.471 152.027 225.249L152.016 225.25Z" fill="#FFFACF"/>
<path d="M169.307 206.821L175.296 200.051L223.855 242.954L217.866 249.724L169.307 206.821Z" fill="#FFFACF"/>
<path d="M219.077 158.495L261.756 207.257L254.954 213.208L245.482 202.389C231.848 186.819 220.304 182.884 206.373 185.823L241.02 225.402L234.377 231.219L190.978 181.638C202.908 176.414 214.014 175.222 224.671 178.625L212.263 164.447L219.065 158.496L219.077 158.495Z" fill="#FFFACF"/>
<path d="M271.272 124.085L304.969 179.435L297.248 184.135L277.196 151.207C276.552 152.234 275.598 153.202 274.211 154.043C269.929 156.65 267.477 155.977 264.877 157.558C261.339 159.709 262.333 162.164 264.085 165.047L281.531 193.694L273.809 198.394L240.112 143.044L247.833 138.344L257.234 153.787C257.878 152.76 258.832 151.792 260.219 150.951C264.5 148.344 266.953 149.017 269.552 147.436C273.091 145.285 271.868 142.448 270.344 139.947L263.551 128.785L271.272 124.085Z" fill="#FFFACF"/>
<path d="M302.144 136.595C294.924 117.671 301.221 109.573 311.05 105.7C321.383 101.632 331.518 103.263 338.809 122.401C346.261 141.942 347.369 161.985 335.104 166.814C322.839 171.644 309.757 156.537 302.144 136.595ZM330.598 125.629C325.493 112.66 321.134 111.09 314.243 113.81C308.368 116.126 305.365 120.701 310.436 133.569C314.827 144.717 324.93 161.458 331.923 158.703C338.815 155.995 334.84 136.373 330.609 125.627L330.598 125.629Z" fill="#FFFACF"/>
<path d="M373.231 145.278C379.076 143.956 382.607 138.355 381.226 132.295C378.244 119.127 356.194 118.428 353.082 104.726C351.492 97.7213 355.598 91.2062 362.716 89.5917C367.606 88.4801 371.185 89.017 375.333 91.5309L371.816 99.1468C369.861 97.9174 367.649 97.5207 365.636 97.9764C363.191 98.5264 361.836 100.401 362.363 102.744C364.001 109.965 386.407 113.259 390.198 129.94C392.852 141.617 386.65 151.733 375.189 154.341C369.878 155.545 365.321 155.128 359.914 153.453L360.574 144.031C365.926 145.946 369.002 146.247 373.255 145.287L373.231 145.278Z" fill="#FFFACF"/>
<path d="M432.844 80.5699L442.427 80.6879C460.064 80.9066 467.348 91.4432 467.195 104.189C466.995 120.309 455.013 138.454 432.05 146.89L432.844 80.5699ZM441.558 89.3865L441.033 132.725C452.341 125.565 458.147 113.873 458.254 104.396C458.353 96.1209 454.409 89.5397 442.643 89.3948L441.558 89.3865Z" fill="#FFFACF"/>
<path d="M512.485 143.338L508.816 152.113L480.028 147.299L490.716 83.3823L515.964 87.5972L516.639 96.7661L498.16 93.6797L496.525 103.454C497.862 102.688 499.569 102.418 501.397 102.717C505.91 103.466 507.107 105.548 510.112 106.055C511.3 106.25 512.19 106.187 512.912 105.862L515.716 113.514C514.107 114.566 511.915 115.088 509.231 114.638C504.29 113.809 502.915 111.49 499.898 110.984C495.813 110.305 494.96 112.812 494.395 116.138L490.468 139.664L512.486 143.35L512.485 143.338Z" fill="#FFFACF"/>
<path d="M604.286 116.173L578.133 176.647L570.042 173.147L574.108 163.745C572.844 163.908 571.416 163.646 569.923 163.007C565.321 161.021 564.461 158.622 561.659 157.416C557.863 155.772 556.419 157.995 555.084 161.104L553.051 165.804L544.861 162.257L550.571 149.06C563.198 119.875 580.891 112.697 604.31 116.182L604.286 116.173ZM579.286 151.749L591.181 124.266C580.264 124.528 569.712 129.459 560.407 149.045C561.624 148.981 562.953 149.195 564.349 149.798C568.951 151.784 569.811 154.184 572.613 155.389C576.408 157.033 578.117 154.455 579.286 151.749Z" fill="#FFFACF"/>
<path d="M618.955 190.143L612.239 196.877L591.573 184.124L625.598 128.97L633.292 133.714L604.13 180.988L618.967 190.142L618.955 190.143Z" fill="#FFFACF"/>
<path d="M691.203 175.502L648.915 226.033L642.146 220.37L648.715 212.522C647.458 212.323 646.161 211.662 644.915 210.622C641.075 207.41 640.923 204.874 638.585 202.917C635.412 200.261 633.4 201.987 631.237 204.569L627.953 208.499L621.106 202.763L630.332 191.742C650.741 167.362 669.758 165.516 691.204 175.513L691.203 175.502ZM657.107 202.49L676.331 179.524C665.792 176.667 654.279 178.383 639.778 194.521C640.963 194.798 642.17 195.387 643.339 196.366C647.18 199.578 647.332 202.114 649.671 204.082C652.844 206.738 655.223 204.75 657.107 202.49Z" fill="#FFFACF"/>
<path d="M718.366 233.405L682.18 264.483C672.728 242.448 677.52 218.104 690.315 207.097C701.216 197.732 712.87 197.924 721.379 207.836C723.868 210.731 725.677 214.343 726.765 218.279L718.686 220.909C718.081 218.703 716.674 215.886 715.043 213.992C709.864 207.955 702.88 208.354 696.269 214.038C688.093 221.062 683.697 235.174 686.498 249.132L705.415 232.878C703.764 230.275 703.752 228.271 702.121 226.377C701.345 225.472 700.611 224.947 699.853 224.739L702.596 217.069C704.508 217.289 706.519 218.291 708.298 220.356C711.134 223.656 711.079 226.436 713.781 229.576C714.986 230.981 715.78 231.733 718.353 233.395L718.366 233.405Z" fill="#FFFACF"/>
<path d="M723.987 252.878C741.456 242.613 750.48 247.479 755.933 256.528C761.66 266.048 761.732 276.297 744.077 286.676C726.05 297.271 706.465 301.686 699.669 290.396C692.873 279.106 705.589 263.701 723.987 252.878ZM739.523 279.113C751.468 271.918 752.282 267.364 748.457 261.026C745.202 255.616 740.191 253.419 728.343 260.545C718.081 266.726 703.251 279.462 707.122 285.9C710.936 292.251 729.632 285.067 739.523 279.113Z" fill="#FFFACF"/>
<path d="M789.429 325.773L728.144 349.962L724.905 341.752L734.433 337.995C733.426 337.22 732.607 336.028 732.008 334.509C730.164 329.852 731.25 327.552 730.132 324.715C728.611 320.862 726.026 321.416 722.877 322.661L718.118 324.539L714.845 316.229L728.215 310.951C757.791 299.278 775.378 306.74 789.441 325.771L789.429 325.773ZM746.585 333.201L774.441 322.207C766.544 314.664 755.612 310.674 735.163 317.923C736.069 318.732 736.855 319.834 737.42 321.252C739.252 325.91 738.177 328.209 739.295 331.046C740.816 334.899 743.849 334.284 746.585 333.201Z" fill="#FFFACF"/>
<path d="M743.015 372.691C744.337 378.537 749.949 382.066 755.998 380.686C769.167 377.704 769.865 355.654 783.556 352.544C790.572 350.952 797.076 355.059 798.701 362.177C799.813 367.066 799.288 370.644 796.762 374.793L789.146 371.276C790.376 369.321 790.772 367.109 790.317 365.097C789.767 362.651 787.892 361.297 785.549 361.824C778.328 363.461 775.036 385.879 758.365 389.657C746.687 392.311 736.561 386.122 733.964 374.647C732.759 369.337 733.177 364.78 734.852 359.373L744.272 360.022C742.358 365.374 742.056 368.449 743.016 372.703L743.015 372.691Z" fill="#FFFACF"/>
<path d="M788.895 440.742L794.679 429.588L802.151 434.02L795.069 444.291L807.6 443.663L807.503 452.486L795.094 451.48L801.852 461.9L794.295 466.291L788.747 455.014L783.08 466.178L775.607 461.63L782.573 451.36L770.043 452.104L770.14 443.281L782.769 444.17L775.906 433.75L783.465 429.476L788.896 440.753L788.895 440.742Z" fill="#FFFACF"/>
<path d="M590.74 499.709C584.085 503.428 575.58 506.405 565.679 508.524C530.564 516.042 516.562 510.295 495.182 514.872C478.998 518.337 471.678 523.743 468.933 530.486L459.755 487.613C466.346 484.193 474.248 481.323 483.574 479.327C518.689 471.809 532.693 477.555 554.073 472.978C571.433 469.262 578.71 462.543 581.148 454.903L590.74 499.709Z" fill="#FFFACF"/>
<path d="M620.053 582.707H579.207V563.236C579.081 563.311 578.953 563.384 578.826 563.458V510.351C579.097 507.856 579.187 505.282 579.187 502.726V351.955C529.242 379.965 501.354 424.827 495.078 505.749H453.357C458.488 430.533 479.981 384.119 521.714 351.944H459.192L469.271 310.605H620.053V582.707Z" fill="#FFFACF"/>
<path d="M427.658 544.966L419.413 544.065H427.658V544.966Z" fill="#FFFACF"/>
<path d="M456.517 483.761C455.83 487.883 454.685 506.207 452.395 512.62L460.64 504.372C459.266 497.73 456.645 482.994 456.517 483.761Z" fill="#FFFACF"/>
<path d="M383.549 306.483C395.026 306.483 405.872 307.579 416.09 309.768C414.937 312.373 413.772 315.083 412.595 317.899C408.599 327.466 405.802 336.862 403.895 345.914C397.878 344.701 391.352 344.093 384.314 344.093C366.711 344.093 351.277 348.35 338.011 356.865C324.873 365.263 314.604 377.15 307.206 392.525C299.935 407.782 296.299 425.7 296.299 446.279C296.299 467.331 299.871 485.663 307.014 501.274C314.285 516.886 324.49 529.008 337.629 537.642C350.895 546.276 366.456 550.593 384.314 550.593C396.05 550.593 406.701 548.701 416.268 544.916C425.835 541.131 433.936 535.692 440.569 528.596C447.202 521.499 451.921 512.983 454.727 503.048H499.883C497.332 519.133 491.017 533.622 480.94 546.513C470.99 559.286 457.788 569.458 441.333 577.027C425.006 584.478 405.999 588.204 384.314 588.204C356.762 588.204 333.035 582.171 313.136 570.108C293.238 558.044 277.931 541.428 267.216 520.257C256.501 499.087 251.144 474.9 251.144 447.697C251.144 420.022 256.628 395.599 267.598 374.429C278.696 353.14 294.131 336.524 313.903 324.579C333.802 312.515 357.017 306.483 383.549 306.483Z" fill="#FFFACF"/>
</svg>
