<svg width="889" height="889" viewBox="0 0 889 889" fill="none" xmlns="http://www.w3.org/2000/svg">
<circle cx="444.5" cy="444.5" r="444" fill="#DA4A34" stroke="black"/>
<path d="M796.447 507.061C799.412 511.104 800.492 516.284 799.356 522.316L799.239 522.901C798.499 526.41 796.882 529.838 794.599 532.955L788.421 528.71C789.736 526.841 790.986 524.177 791.475 521.835L791.615 521.16L791.591 521.163C792.227 517.45 791.557 514.253 789.622 511.729C787.58 509.066 784.187 507.225 779.642 506.271C768.176 503.872 756.323 508.581 739.198 522.895L733.186 517.576C751.279 501.704 767.455 495.499 781.302 498.394C788.253 499.855 793.381 502.881 796.447 507.061Z" fill="#FFFACF" stroke="black"/>
<path d="M773.14 558.073C778.379 566.479 779.82 576.368 778.744 587.806L718.218 564.887L720.986 557.574L730.092 561.025L730.915 561.337L730.762 560.47C730.562 559.335 730.731 557.985 731.285 556.511C732.149 554.236 733.145 552.869 734.07 551.706C734.992 550.548 735.91 549.519 736.486 547.999L736.487 547.999C737.258 545.957 737.079 544.454 736.15 543.307C735.272 542.222 733.785 541.549 732.213 540.952L732.212 540.952L727.887 539.315L730.69 531.894L743.665 536.806C758.475 542.412 767.801 549.508 773.14 558.073ZM771 575.751C770.609 570.232 769.037 564.827 765.014 559.743C760.998 554.666 754.566 549.945 744.518 545.732L743.734 545.403L743.827 546.248C743.951 547.37 743.8 548.626 743.284 549.996L743.283 549.996C742.419 552.272 741.423 553.639 740.497 554.803C739.576 555.961 738.657 556.99 738.081 558.51C737.695 559.534 737.568 560.441 737.667 561.249C737.766 562.061 738.089 562.742 738.556 563.314C739.472 564.436 740.937 565.131 742.319 565.653L742.318 565.654L770.324 576.254L771.055 576.531L771 575.751Z" fill="#FFFACF" stroke="black"/>
<path d="M767.05 613.276C756.958 621.83 747.745 624.99 737.193 623.44L736.043 623.271L736.712 624.222C742.839 632.947 744.167 642.597 741.075 655.461L685.983 621.538L690.082 614.872L734.172 642.025L734.883 642.464L734.933 641.629C735.346 634.69 733.171 629.736 728.801 625.25C724.468 620.802 717.96 616.799 709.725 611.726L696.893 603.826L701.054 597.072L713.885 604.974C722.12 610.046 728.625 614.054 734.547 615.92C740.521 617.803 745.923 617.515 751.931 614.026L752.653 613.607L751.941 613.169L707.852 586.016L711.952 579.351L767.05 613.276Z" fill="#FFFACF" stroke="black"/>
<path d="M718.633 681.229L669.926 640.018L675.115 633.877L723.821 675.088L718.633 681.229Z" fill="#FFFACF" stroke="black"/>
<path d="M702.527 700.512C691.034 705.715 680.273 707.019 669.877 703.921L668.15 703.406L669.365 704.737L681.733 718.28L675.804 723.702L632.769 676.61L638.7 671.185L648.056 681.424C655.068 689.096 661.526 693.895 668.01 696.36C674.505 698.828 680.983 698.939 687.998 697.309L688.831 697.115L688.254 696.484L653.106 658.019L658.88 652.741L702.527 700.512Z" fill="#FFFACF" stroke="black"/>
<path d="M647.651 744.469L638.192 729.659L637.758 728.979L637.343 729.67C636.756 730.647 635.894 731.568 634.572 732.405L634.571 732.406C632.518 733.715 630.901 734.218 629.464 734.599C628.035 734.977 626.685 735.251 625.318 736.121L625.318 736.122C624.396 736.711 623.756 737.36 623.36 738.063C622.961 738.77 622.826 739.505 622.871 740.236C622.96 741.666 623.742 743.082 624.537 744.318L631.304 754.915L624.515 759.247L590.165 705.472L596.944 701.147L617.436 733.213L617.874 733.899L618.288 733.199C618.862 732.227 619.732 731.305 621.056 730.467L621.057 730.466L621.438 730.23C623.312 729.095 624.817 728.63 626.164 728.274C627.593 727.895 628.943 727.621 630.309 726.751L630.31 726.75L630.643 726.529C632.241 725.41 632.899 724.169 632.842 722.786C632.785 721.391 631.993 719.965 631.09 718.553L613.302 690.698L620.081 686.373L654.43 740.143L647.651 744.469Z" fill="#FFFACF" stroke="black"/>
<path d="M592.818 748.252C596.607 757.579 596.941 764.188 595.208 768.936C593.481 773.671 589.656 776.669 584.854 778.681C579.795 780.799 574.851 781.473 570.245 779.367C565.628 777.256 561.23 772.296 557.4 762.863L557.4 762.862C553.477 753.215 551.144 743.439 551.29 735.469C551.436 727.487 554.054 721.466 559.86 719.031C565.671 716.595 571.855 718.875 577.67 724.354C583.479 729.827 588.809 738.405 592.817 748.253L592.818 748.252ZM588.042 765.182C588.868 761.96 588.204 757.483 585.517 751.077C583.191 745.519 579.397 738.586 575.303 733.395C573.259 730.803 571.117 728.616 569.023 727.26C567.001 725.95 564.933 725.361 563.029 726.069L562.844 726.141C560.909 726.953 559.846 728.915 559.355 731.378C558.862 733.853 558.917 736.956 559.322 740.264C560.128 746.858 562.343 754.408 564.579 759.758L564.581 759.772L564.609 759.839C567.304 766.274 569.798 769.989 572.569 771.694C575.222 773.327 578.025 773.064 581.224 771.831L581.869 771.571L582.423 771.329C585.149 770.08 587.255 768.248 588.042 765.182Z" fill="#FFFACF" stroke="black"/>
<path d="M542.505 781.16C544.176 787.866 540.374 794.202 533.561 795.898C531.17 796.494 529.123 796.673 527.171 796.418C525.344 796.18 523.575 795.556 521.665 794.502L524.621 787.729C526.583 788.757 528.736 789.03 530.713 788.536C532.025 788.209 533.079 787.519 533.723 786.556C534.33 785.648 534.546 784.535 534.305 783.343L534.251 783.103C533.997 782.089 533.386 781.183 532.553 780.348C531.721 779.513 530.644 778.726 529.419 777.951C526.991 776.416 523.823 774.836 520.691 773.026C514.346 769.359 507.86 764.597 505.843 756.519C504.419 750.82 505.178 745.488 507.663 741.242C510.148 736.997 514.378 733.803 519.963 732.41C525.024 731.147 529.414 731.416 534.621 732.859L534.223 741.239C531.8 740.461 529.816 740.004 527.941 739.859C526.157 739.72 524.49 739.864 522.657 740.261L521.86 740.446C515.967 741.914 512.43 747.551 513.643 753.616L513.775 754.204C514.627 757.619 516.701 760.175 519.335 762.294C521.959 764.406 525.173 766.11 528.336 767.803C531.518 769.506 534.651 771.199 537.204 773.304C539.747 775.402 541.686 777.886 542.505 781.16Z" fill="#FFFACF" stroke="black"/>
<path d="M463.247 806.402L454.163 806.489C445.443 806.571 439.301 804.049 435.322 799.999C431.339 795.945 429.461 790.298 429.399 784.017C429.253 768.301 440.456 750.27 462.642 741.317L463.247 806.402ZM454.174 754.507C443.064 761.878 437.425 773.591 437.341 783.167L437.341 783.621C437.379 787.834 438.439 791.669 441.058 794.438C443.683 797.214 447.797 798.836 453.769 798.78L453.771 798.78L454.854 798.765L455.351 798.758L455.346 798.26L454.95 754.919L454.942 753.998L454.174 754.507Z" fill="#FFFACF" stroke="black"/>
<path d="M405.466 804.765L381.023 801.224L380.249 793.101L398.158 795.693L398.652 795.765L398.724 795.27L400.147 785.461L400.298 784.415L399.393 784.962C398.261 785.646 396.799 785.946 395.196 785.775L394.873 785.734C392.689 785.418 391.304 784.768 390.074 784.131C388.922 783.534 387.842 782.907 386.383 782.639L386.087 782.59C385.088 782.445 384.236 782.47 383.507 782.698L380.867 775.961C382.314 775.092 384.237 774.649 386.638 774.994C389.041 775.344 390.58 776.069 391.906 776.772C393.224 777.471 394.424 778.209 396.041 778.442C398.205 778.757 399.635 778.257 400.554 777.1C401.422 776.007 401.754 774.409 401.994 772.75L405.41 749.141L405.482 748.645L404.987 748.574L383.503 745.463L386.616 737.562L414.611 741.62L405.466 804.765Z" fill="#FFFACF" stroke="black"/>
<path d="M344.136 740.79C338.165 755.455 330.839 764.6 322.144 769.725C313.611 774.755 303.69 775.95 292.286 774.593L316.698 714.624L323.939 717.575L320.268 726.596L319.935 727.416L320.809 727.278C321.952 727.099 323.284 727.31 324.742 727.901L324.741 727.903C326.994 728.82 328.338 729.85 329.479 730.805C330.615 731.756 331.62 732.702 333.126 733.317L333.127 733.317C335.15 734.139 336.659 733.997 337.828 733.097C338.935 732.245 339.641 730.776 340.269 729.223L342.015 724.95L349.365 727.937L344.136 740.79ZM334.714 740.694C333.576 740.776 332.317 740.61 330.985 740.061L330.983 740.06C328.73 739.143 327.387 738.113 326.245 737.158C325.11 736.207 324.104 735.26 322.598 734.646L322.597 734.645C321.583 734.233 320.679 734.084 319.869 734.162C319.055 734.241 318.366 734.548 317.782 735C316.637 735.888 315.905 737.335 315.347 738.703L315.346 738.703L304.053 766.447L303.758 767.17L304.538 767.135C310.068 766.884 315.508 765.446 320.689 761.547C325.862 757.655 330.741 751.339 335.206 741.398L335.549 740.634L334.714 740.694Z" fill="#FFFACF" stroke="black"/>
<path d="M269.81 761.934L262.88 757.858L290.778 710.417L291.032 709.986L290.6 709.733L276.122 701.222L281.984 695.083L302.145 706.945L269.81 761.934Z" fill="#FFFACF" stroke="black"/>
<path d="M263.528 699.706L263.527 699.707C253.628 712.06 244 718.74 234.206 721.175C224.599 723.564 214.754 721.886 204.218 717.34L244.699 666.823L250.799 671.71L244.71 679.313L244.16 679.998L245.03 680.12C246.174 680.281 247.407 680.855 248.623 681.839L248.626 681.841C250.527 683.364 251.522 684.733 252.342 685.973C253.159 687.206 253.851 688.398 255.116 689.411C256.824 690.779 258.311 691.073 259.689 690.542C260.993 690.039 262.089 688.831 263.137 687.522L266.021 683.922L272.21 688.879L263.528 699.706ZM254.536 696.918C253.425 696.683 252.278 696.155 251.145 695.247C249.244 693.725 248.25 692.354 247.429 691.115C246.613 689.882 245.921 688.69 244.656 687.677C243.802 686.991 242.979 686.588 242.181 686.432C241.378 686.274 240.63 686.373 239.942 686.641C238.656 687.142 237.586 688.239 236.691 689.341L236.675 689.343L236.546 689.505L217.821 712.871L217.332 713.481L218.09 713.669C223.463 715.002 229.089 715.175 235.166 712.914C241.233 710.657 247.706 705.992 254.811 697.733L255.362 697.093L254.536 696.918Z" fill="#FFFACF" stroke="black"/>
<path d="M210.363 629.221C219.855 650.738 215.547 674.575 203.303 685.56C198.017 690.302 192.543 692.647 187.357 692.648C182.181 692.648 177.215 690.312 172.926 685.538C170.539 682.867 168.727 679.532 167.569 675.858L174.642 673.388C175.372 675.552 176.785 678.136 178.388 679.923C181.125 682.976 184.333 684.397 187.721 684.267C190.881 684.145 194.13 682.677 197.239 680.059L197.858 679.52C206.049 672.169 210.155 657.775 207.027 643.737L206.84 642.903L206.205 643.474L187.635 660.132L187.312 660.422L187.554 660.783C188.379 662.014 188.803 663.11 189.24 664.174C189.676 665.233 190.13 666.27 191.023 667.267C191.698 668.021 192.366 668.541 193.071 668.834L190.776 675.694C189.106 675.437 187.34 674.547 185.721 672.746C184.317 671.181 183.614 669.733 182.905 668.254C182.24 666.864 181.567 665.439 180.302 663.95L180.041 663.652C178.865 662.34 178.054 661.586 175.845 660.189L210.363 629.221Z" fill="#FFFACF" stroke="black"/>
<path d="M192.073 603.108C195.437 608.437 194.214 614.912 189.776 621.554C185.343 628.188 177.771 634.864 168.729 640.449C160.16 645.736 153.696 647.162 148.727 646.239C143.772 645.32 140.182 642.042 137.405 637.641C134.476 633.006 132.993 628.243 134.305 623.352C135.58 618.602 139.523 613.61 147.645 608.444L148.445 607.943C157.31 602.468 166.564 598.548 174.448 597.373C182.342 596.196 188.711 597.783 192.073 603.108ZM185.476 613.501C186.463 611.218 186.685 609.015 185.553 607.223C184.432 605.448 182.321 604.726 179.811 604.65C177.289 604.574 174.239 605.142 171.044 606.09C164.648 607.989 157.534 611.446 152.62 614.548L152.356 614.714L152.357 614.729C146.623 618.381 143.452 621.41 142.249 624.38C141.001 627.461 141.91 630.35 143.914 633.527L143.914 633.528C145.647 636.27 147.875 638.266 151.238 638.55C154.345 638.812 158.321 637.599 163.644 634.389L164.727 633.72L165.693 633.098C170.586 629.891 176.303 625.305 180.466 620.712C182.684 618.265 184.485 615.791 185.476 613.501Z" fill="#FFFACF" stroke="black"/>
<path d="M163.361 582.464C148.763 588.593 137.113 589.865 127.345 587.328C117.758 584.838 109.905 578.658 102.814 569.623L162.485 544.572L165.514 551.782L156.54 555.545L155.722 555.888L156.438 556.41C157.369 557.09 158.163 558.181 158.774 559.641L158.774 559.642C159.718 561.887 159.938 563.566 160.068 565.047C160.197 566.522 160.236 567.901 160.866 569.4L160.867 569.399C161.712 571.416 162.876 572.386 164.342 572.576C165.727 572.757 167.269 572.217 168.818 571.565L173.081 569.778L176.156 577.089L163.361 582.464ZM156.751 575.733C155.886 574.991 155.124 573.98 154.566 572.644L154.566 572.643C153.622 570.398 153.402 568.719 153.272 567.238C153.151 565.855 153.109 564.556 152.585 563.165L152.474 562.885C152.05 561.874 151.519 561.127 150.892 560.609C150.261 560.087 149.557 559.817 148.825 559.724C147.568 559.564 146.231 559.931 145.005 560.408L144.487 560.619L116.873 572.215L116.152 572.518L116.729 573.046C120.813 576.78 125.671 579.616 132.089 580.532C138.496 581.447 146.411 580.442 156.603 576.58L157.391 576.281L156.751 575.733Z" fill="#FFFACF" stroke="black"/>
<path d="M155.902 519.495C157.164 524.556 156.895 528.944 155.452 534.151L147.072 533.752C147.85 531.33 148.308 529.346 148.453 527.472C148.611 525.433 148.4 523.547 147.865 521.391L147.865 521.39C146.398 515.498 140.76 511.961 134.695 513.174L134.108 513.306C130.693 514.157 128.136 516.232 126.017 518.866C123.906 521.49 122.201 524.705 120.509 527.867C118.806 531.049 117.114 534.183 115.008 536.735C113.042 539.119 110.735 540.972 107.756 541.869L107.15 542.035C100.445 543.706 94.1101 539.904 92.4146 533.091C91.8183 530.701 91.6381 528.653 91.8931 526.701C92.1318 524.874 92.7549 523.105 93.8094 521.194L100.583 524.15C99.5544 526.113 99.2811 528.267 99.7754 530.245C100.103 531.556 100.793 532.611 101.756 533.254C102.664 533.861 103.777 534.077 104.97 533.835L105.209 533.781C106.223 533.528 107.128 532.916 107.963 532.084C108.798 531.251 109.585 530.175 110.36 528.95C111.896 526.523 113.475 523.355 115.286 520.222C118.953 513.877 123.714 507.391 131.792 505.373C137.492 503.949 142.823 504.708 147.069 507.193C151.314 509.678 154.509 513.91 155.902 519.495Z" fill="#FFFACF" stroke="black"/>
<path d="M118.27 451.002L106.154 450.411L105.144 450.361L105.718 451.194L112.495 461.021L105.944 464.913L100.551 454.315L100.371 452.686L99.6141 454.228L94.3107 465.029L87.6793 461.283L94.2404 451.309L94.7964 450.464L93.7865 450.536L81.8031 451.392L81.714 443.634L93.6037 444.34L94.6174 444.4L94.047 443.559L87.3687 433.726L93.9326 429.733L99.4766 440.415L99.9373 441.302L100.371 440.401L105.57 429.61L112.208 433.461L105.743 443.442L105.19 444.294L106.202 444.213L118.18 443.245L118.27 451.002Z" fill="#FFFACF" stroke="black"/>
<path d="M157.279 364.047C139.136 379.287 123.056 385.197 109.417 382.33L108.764 382.186C101.849 380.578 96.7874 377.441 93.8117 373.196C90.8415 368.958 89.9043 363.551 91.3542 357.301C92.1625 353.818 93.8592 350.424 96.2048 347.353L102.295 351.732C100.94 353.572 99.6321 356.212 99.0977 358.548L99.1059 358.551C98.1849 362.524 98.7402 365.963 100.73 368.679C102.714 371.387 106.069 373.303 110.595 374.353C122.006 377.007 133.959 372.545 151.389 358.601L157.279 364.047Z" fill="#FFFACF" stroke="black"/>
<path d="M170.341 324.339L161.311 320.691L160.493 320.361L160.63 321.233C160.808 322.368 160.608 323.709 160.019 325.177L160.018 325.177C159.107 327.435 158.081 328.784 157.129 329.928C156.182 331.065 155.237 332.071 154.628 333.57L154.628 333.572C153.812 335.601 153.961 337.11 154.867 338.276C155.723 339.38 157.194 340.082 158.745 340.71L158.746 340.71L163.028 342.434L160.063 349.791L147.191 344.598C132.508 338.67 123.34 331.375 118.188 322.699C113.131 314.182 111.906 304.264 113.231 292.848L173.269 317.079L170.341 324.339ZM153.419 322.65C154.068 320.779 153.781 319.333 152.908 318.214C152.017 317.072 150.569 316.346 149.195 315.795L121.426 304.585L120.702 304.293L120.739 305.073C121.007 310.6 122.46 316.035 126.372 321.205C130.278 326.366 136.607 331.226 146.562 335.66L147.333 336.003L147.264 335.163C147.171 334.033 147.347 332.772 147.887 331.424L147.887 331.425C148.798 329.166 149.824 327.817 150.776 326.674C151.723 325.537 152.667 324.531 153.276 323.032L153.277 323.03L153.419 322.65Z" fill="#FFFACF" stroke="black"/>
<path d="M202.436 267.705L158.934 239.622L158.232 239.169L158.165 240.002C157.602 246.928 159.67 251.929 163.945 256.51C168.184 261.051 174.608 265.192 182.733 270.433L195.394 278.611L191.088 285.278L178.429 277.1C170.308 271.852 163.891 267.703 158.009 265.712C152.077 263.703 146.668 263.878 140.588 267.243L139.856 267.647L140.558 268.1L184.058 296.184L179.814 302.75L125.456 267.655C135.727 259.32 145.004 256.357 155.524 258.136L156.67 258.33L156.023 257.365C150.086 248.509 148.957 238.839 152.333 226.049L206.68 261.138L202.436 267.705Z" fill="#FFFACF" stroke="black"/>
<path d="M217.824 249.017L170.014 206.778L175.339 200.756L223.149 242.996L217.824 249.017Z" fill="#FFFACF" stroke="black"/>
<path d="M255 212.502L245.858 202.059C239.012 194.241 232.656 189.303 226.226 186.701C219.785 184.095 213.313 183.848 206.269 185.334L205.434 185.509L205.996 186.152L240.315 225.354L234.425 230.512L191.809 181.826C203.416 176.871 214.19 175.804 224.518 179.102L226.23 179.647L225.047 178.295L212.968 164.493L219.026 159.195L261.05 207.209L255 212.502Z" fill="#FFFACF" stroke="black"/>
<path d="M297.415 183.448L277.623 150.947L277.202 150.257L276.772 150.942C276.173 151.897 275.277 152.811 273.951 153.616L273.951 153.617C271.871 154.883 270.242 155.351 268.796 155.699C267.357 156.046 266 156.29 264.618 157.131C262.749 158.267 261.967 159.563 261.997 161.038C262.025 162.433 262.787 163.876 263.658 165.307L263.658 165.307L280.844 193.527L273.977 197.707L240.799 143.21L247.667 139.03L256.807 154.047L257.227 154.738L257.657 154.053C258.256 153.097 259.151 152.182 260.478 151.378L260.479 151.378L260.864 151.15C262.761 150.054 264.277 149.622 265.633 149.295C267.072 148.948 268.429 148.705 269.812 147.864C270.748 147.294 271.402 146.659 271.813 145.964C272.227 145.265 272.377 144.533 272.346 143.802C272.287 142.37 271.533 140.936 270.771 139.686L264.238 128.951L271.106 124.771L304.283 179.268L297.415 183.448Z" fill="#FFFACF" stroke="black"/>
<path d="M338.342 122.579C342.054 132.313 344.171 142.139 343.85 150.104C343.529 158.081 340.78 164.042 334.921 166.349C329.057 168.658 322.924 166.243 317.23 160.638C311.543 155.039 306.402 146.347 302.611 136.417C299.023 127.01 298.833 120.395 300.67 115.685C302.444 111.135 306.15 108.257 310.782 106.348L311.234 106.165C316.333 104.157 321.292 103.593 325.852 105.799C330.424 108.011 334.717 113.065 338.342 122.579ZM335.934 145.13C335.268 138.49 333.203 130.853 331.074 125.444L330.935 125.089L330.921 125.09C328.418 118.816 326.044 115.15 323.361 113.416C320.57 111.611 317.561 111.963 314.06 113.344C311.043 114.534 308.662 116.348 307.753 119.598C306.856 122.8 307.424 127.289 309.971 133.752C312.179 139.358 315.823 146.372 319.804 151.65C321.793 154.287 323.888 156.519 325.952 157.92C328.01 159.316 330.134 159.945 332.106 159.168C334.059 158.401 335.163 156.463 335.708 154.012C336.255 151.549 336.267 148.446 335.934 145.13Z" fill="#FFFACF" stroke="black"/>
<path d="M389.711 130.05C391.012 135.774 390.137 141.087 387.561 145.279C385.066 149.34 380.954 152.381 375.599 153.727L375.078 153.853C369.994 155.006 365.617 154.645 360.441 153.087L361.028 144.718C363.436 145.55 365.409 146.05 367.278 146.235C369.312 146.436 371.199 146.264 373.366 145.775L375.013 145.403L374.811 145.328C379.861 143.466 382.828 138.348 381.833 132.775L381.714 132.184C380.937 128.752 378.917 126.152 376.329 123.976C373.751 121.809 370.574 120.035 367.448 118.275C364.303 116.503 361.207 114.743 358.7 112.583C356.202 110.431 354.318 107.906 353.57 104.615C352.042 97.8827 355.975 91.6334 362.827 90.0794C365.229 89.5334 367.281 89.3986 369.227 89.6962C371.05 89.9748 372.806 90.6357 374.691 91.7303L371.593 98.4365C369.789 97.4416 367.8 97.0872 365.932 97.4077L365.526 97.4889C364.205 97.7861 363.138 98.4513 362.475 99.402C361.809 100.358 361.584 101.559 361.875 102.854L361.876 102.855C362.107 103.875 362.698 104.794 363.513 105.647C364.326 106.5 365.386 107.309 366.594 108.111C368.987 109.698 372.12 111.345 375.213 113.222C381.479 117.024 387.864 121.925 389.711 130.05Z" fill="#FFFACF" stroke="black"/>
<path d="M461.118 88.0832C465.014 92.2204 466.77 97.904 466.695 104.183C466.5 119.902 454.915 137.68 432.559 146.163L433.338 81.0752L442.421 81.1873C451.138 81.2955 457.226 83.9505 461.118 88.0832ZM458.754 104.403C458.804 100.192 457.827 96.3349 455.268 93.5106C452.703 90.6791 448.623 88.9681 442.649 88.8945L442.647 88.8947L441.562 88.8859L441.064 88.883L441.058 89.3798L440.533 132.719L440.522 133.64L441.3 133.147C452.742 125.903 458.645 114.059 458.754 104.403Z" fill="#FFFACF" stroke="black"/>
<path d="M516.094 96.1676L498.243 93.1868L497.749 93.1038L497.667 93.5973L496.032 103.371L495.857 104.411L496.773 103.888C497.995 103.188 499.583 102.927 501.317 103.211L501.318 103.21C503.495 103.571 504.865 104.251 506.08 104.915C507.294 105.579 508.426 106.277 510.029 106.548L510.031 106.549C511.033 106.713 511.879 106.709 512.614 106.5L515.106 113.3C513.744 114.082 511.96 114.488 509.79 114.215L509.314 114.145C506.922 113.744 505.399 112.985 504.087 112.253C502.783 111.525 501.595 110.762 499.981 110.491L499.981 110.49C497.824 110.132 496.385 110.603 495.442 111.74C494.551 112.814 494.182 114.403 493.902 116.054L493.902 116.056L489.975 139.581L489.893 140.075L490.385 140.157L511.777 143.737L508.508 151.554L480.604 146.887L491.127 83.9576L515.494 88.025L516.094 96.1676Z" fill="#FFFACF" stroke="black"/>
<path d="M577.874 175.989L570.699 172.885L574.567 163.943L574.916 163.136L574.044 163.249C572.893 163.397 571.557 163.162 570.122 162.547C567.886 161.583 566.565 160.523 565.446 159.543C564.332 158.567 563.348 157.599 561.858 156.957C559.854 156.09 558.341 156.198 557.152 157.075C556.027 157.904 555.289 159.36 554.626 160.905L554.625 160.905L552.79 165.146L545.519 161.996L551.029 149.259C557.317 134.727 564.836 125.741 573.638 120.806C582.268 115.966 592.201 114.982 603.564 116.58L577.874 175.989ZM591.169 123.766C585.633 123.899 580.162 125.219 574.898 129.003C569.642 132.782 564.631 138.989 559.955 148.83L559.595 149.589L560.433 149.545C561.57 149.484 562.823 149.683 564.15 150.257L564.15 150.258C566.385 151.222 567.707 152.282 568.826 153.262C569.94 154.238 570.924 155.206 572.414 155.848C573.418 156.283 574.319 156.453 575.13 156.392C575.945 156.332 576.64 156.041 577.233 155.602C578.395 154.739 579.158 153.307 579.746 151.947L579.746 151.946L591.639 124.464L591.95 123.747L591.169 123.766Z" fill="#FFFACF" stroke="black"/>
<path d="M603.705 180.725L603.443 181.15L603.868 181.413L618.161 190.231L612.165 196.242L592.261 183.96L625.761 129.657L632.604 133.877L603.705 180.725Z" fill="#FFFACF" stroke="black"/>
<path d="M648.852 225.328L642.851 220.306L649.099 212.842L649.665 212.165L648.794 212.028C647.651 211.847 646.434 211.238 645.236 210.238C643.371 208.677 642.405 207.287 641.609 206.031C640.867 204.858 640.233 203.725 639.132 202.731L638.906 202.534C637.231 201.131 635.751 200.807 634.363 201.308C633.05 201.782 631.928 202.965 630.854 204.247L630.854 204.248L627.892 207.794L621.811 202.699L630.716 192.063C640.877 179.924 650.645 173.451 660.489 171.223C670.146 169.039 679.955 170.923 690.393 175.691L648.852 225.328ZM676.461 179.041C671.117 177.593 665.499 177.298 659.376 179.427C653.263 181.552 646.693 186.078 639.407 194.186L638.842 194.815L639.665 195.008C640.767 195.266 641.905 195.817 643.019 196.748C644.884 198.309 645.85 199.7 646.646 200.957C647.437 202.209 648.106 203.418 649.349 204.464L649.35 204.465C650.19 205.168 651.005 205.587 651.8 205.76C652.6 205.934 653.35 205.852 654.043 205.6C655.405 205.103 656.543 203.947 657.49 202.81L657.49 202.811L676.714 179.845L677.216 179.245L676.461 179.041Z" fill="#FFFACF" stroke="black"/>
<path d="M719.019 220.274C718.335 218.093 716.984 215.479 715.422 213.665C712.751 210.551 709.574 209.06 706.184 209.119C702.811 209.177 699.304 210.769 695.943 213.659C687.602 220.825 683.18 235.135 686.009 249.23L686.176 250.068L686.825 249.511L705.741 233.257L706.069 232.975L705.838 232.611C705.043 231.358 704.644 230.253 704.227 229.18C703.811 228.111 703.375 227.067 702.5 226.051C701.846 225.287 701.189 224.746 700.493 224.438L702.93 217.623C704.589 217.912 706.337 218.846 707.919 220.682L707.92 220.681C709.287 222.272 709.957 223.735 710.634 225.231C711.312 226.73 712 228.27 713.402 229.9L713.401 229.901C714.552 231.243 715.353 232.01 717.539 233.456L682.377 263.654C673.345 241.933 678.174 218.2 690.641 207.475L690.641 207.476C696.026 202.85 701.549 200.624 706.733 200.737C711.908 200.85 716.822 203.294 721 208.161C723.337 210.88 725.069 214.256 726.151 217.952L719.019 220.274Z" fill="#FFFACF" stroke="black"/>
<path d="M755.504 256.785C758.331 261.484 759.711 266.277 758.293 271.139C756.915 275.861 752.865 280.768 744.634 285.762L743.824 286.245C734.843 291.523 725.506 295.241 717.599 296.246C709.679 297.253 703.344 295.531 700.097 290.138C696.848 284.741 698.21 278.293 702.79 271.748C707.365 265.211 715.079 258.699 724.241 253.309C732.924 248.207 739.416 246.921 744.365 247.95C749.145 248.944 752.597 252.121 755.25 256.371L755.504 256.785ZM750.362 269.946C751.594 267.084 750.926 264.351 749.236 261.367L748.885 260.767C747.213 257.989 745.031 255.944 741.676 255.586C738.576 255.256 734.574 256.381 729.182 259.472L728.085 260.116C722.924 263.224 716.613 267.981 712.069 272.782C709.8 275.18 707.946 277.616 706.907 279.883C705.871 282.144 705.601 284.342 706.693 286.158C707.774 287.957 709.869 288.725 712.377 288.855C714.897 288.986 717.96 288.482 721.176 287.603C727.613 285.843 734.802 282.538 739.78 279.541C745.76 275.94 749.076 272.933 750.362 269.946Z" fill="#FFFACF" stroke="black"/>
<path d="M728.425 349.312L725.555 342.033L734.616 338.46L735.436 338.136L734.737 337.598C733.937 336.982 733.245 336.057 732.698 334.857L732.472 334.326C731.577 332.064 731.393 330.381 731.297 328.897C731.206 327.513 731.194 326.213 730.703 324.813L730.598 324.532C729.795 322.498 728.65 321.505 727.19 321.282C725.982 321.098 724.642 321.462 723.278 321.971L722.693 322.197L718.401 323.89L715.494 316.51L728.399 311.416C743.124 305.604 754.798 304.582 764.509 307.328C774.037 310.022 781.754 316.365 788.646 325.543L728.425 349.312ZM774.787 321.845C770.782 318.02 765.985 315.078 759.59 314.024C753.204 312.972 745.271 313.81 734.996 317.452L734.201 317.733L734.83 318.296C735.673 319.049 736.416 320.085 736.955 321.437L736.955 321.436C737.845 323.698 738.028 325.382 738.126 326.865C738.218 328.25 738.234 329.548 738.725 330.948L738.83 331.229C739.232 332.249 739.749 333.007 740.364 333.539C740.984 334.074 741.681 334.36 742.411 334.469C743.664 334.656 745.008 334.318 746.245 333.865L746.77 333.666L774.625 322.672L775.352 322.385L774.787 321.845Z" fill="#FFFACF" stroke="black"/>
<path d="M798.215 362.287C798.761 364.689 798.898 366.741 798.602 368.687C798.324 370.509 797.663 372.265 796.564 374.15L789.856 371.051C790.851 369.248 791.206 367.26 790.885 365.392L790.804 364.986C790.507 363.665 789.842 362.597 788.891 361.935C787.935 361.269 786.734 361.045 785.439 361.336L785.438 361.336C784.418 361.567 783.499 362.158 782.646 362.973C781.794 363.787 780.984 364.847 780.183 366.055C778.596 368.45 776.95 371.584 775.074 374.679C771.273 380.946 766.374 387.329 758.254 389.169C752.53 390.47 747.215 389.599 743.021 387.024C738.828 384.449 735.723 380.153 734.452 374.537C733.298 369.452 733.659 365.074 735.217 359.898L743.585 360.475C742.753 362.883 742.253 364.856 742.068 366.725C741.867 368.759 742.039 370.646 742.528 372.813L742.53 372.812C743.876 378.736 749.438 382.38 755.519 381.294L756.109 381.173C759.541 380.396 762.142 378.378 764.317 375.79C766.484 373.212 768.257 370.034 770.016 366.908C771.787 363.763 773.547 360.667 775.705 358.16C777.721 355.819 780.064 354.017 783.058 353.185L783.666 353.031C790.41 351.502 796.649 355.435 798.215 362.287Z" fill="#FFFACF" stroke="black"/>
<path d="M807.009 451.944L795.134 450.982L794.121 450.899L794.674 451.752L801.147 461.731L794.508 465.588L789.196 454.793L788.755 453.896L788.301 454.788L782.879 465.47L776.316 461.476L782.986 451.641L783.557 450.801L782.544 450.861L770.549 451.572L770.635 443.817L782.734 444.668L783.744 444.739L783.186 443.894L776.618 433.922L783.246 430.174L788.446 440.97L789.018 440.805L789.338 440.972L794.879 430.287L801.436 434.176L794.657 444.007L794.082 444.841L795.093 444.79L807.095 444.188L807.009 451.944Z" fill="#FFFACF" stroke="black"/>
<path d="M385.7 305.995C396.416 306.124 406.58 307.22 416.194 309.279L416.796 309.407L416.547 309.97C415.396 312.572 414.232 315.278 413.057 318.092C409.074 327.627 406.285 336.993 404.384 346.018L404.281 346.502L403.796 346.404C397.816 345.199 391.323 344.593 384.314 344.593C366.796 344.593 351.457 348.829 338.281 357.286H338.28C325.228 365.628 315.018 377.44 307.656 392.738L307.657 392.739C300.425 407.916 296.799 425.758 296.799 446.278C296.799 467.273 300.361 485.531 307.468 501.063L308.154 502.51C315.339 517.348 325.256 528.913 337.9 537.223H337.901C351.076 545.797 366.54 550.093 384.314 550.093C395.995 550.093 406.583 548.21 416.084 544.451C425.586 540.692 433.624 535.293 440.203 528.254C446.024 522.026 450.36 514.693 453.211 506.249H452.821L452.858 505.715C457.948 431.104 479.131 384.7 520.257 352.444H458.556L458.706 351.825L468.785 310.486L468.878 310.105H620.553V583.206H578.707V564.102L578.325 564.321V510.323L578.328 510.296C578.499 508.728 578.596 507.126 578.646 505.514C574.684 506.858 570.381 508.028 565.783 509.013C548.181 512.781 535.865 513.225 525.283 513.301C515.533 513.37 507.31 513.13 497.766 514.87C494.425 526.428 488.949 537.08 481.334 546.821L481.333 546.82C471.329 559.663 458.061 569.883 441.542 577.481H441.541C425.136 584.968 406.056 588.703 384.314 588.703C356.688 588.703 332.867 582.654 312.877 570.535C292.897 558.422 277.526 541.735 266.77 520.483C256.014 499.233 250.644 474.966 250.644 447.697L250.647 446.399C250.817 419.19 256.314 395.118 267.154 374.198L267.155 374.197C278.12 353.165 293.308 336.667 312.717 324.716L313.645 324.15C333.632 312.034 356.939 305.982 383.549 305.982L385.7 305.995ZM578.687 352.812C554.142 366.721 535.002 384.76 521.192 409.255C510.86 427.582 503.503 449.54 499.107 476.112C508.91 474.82 516.835 474.601 523.971 474.55C534.555 474.474 543.34 474.764 553.968 472.489C567.842 469.519 575.131 464.649 578.687 459.016V352.812Z" fill="#FFFACF" stroke="black"/>
</svg>
